<svg xmlns="http://www.w3.org/2000/svg" width="1210" height="1187" viewBox="0 0 1210 1187" role="img" aria-labelledby="title desc">
<title id="title">Northstar · responsibility map</title><desc id="desc">Proposed — assignments unconfirmed responsibility matrix. Full assignments, notes and sources are available in the accompanying HTML, JSON and CSV.</desc>
<rect width="1210" height="1187" fill="#f7f9fc"/>
<g font-family="Arial, sans-serif">
<text x="26" y="35" font-size="23" fill="#13283f" font-weight="700">Northstar · responsibility map</text>
<text x="26" y="63" font-size="13" fill="#26354a" font-weight="400">Proposed — assignments unconfirmed · M-RACI-0.1 · As of after 2026-10-05; exact draft date unspecified</text>
<text x="26" y="82" font-size="13" fill="#26354a" font-weight="400">Proposed work and independent acceptance boundaries; no agreement or capacity inferred</text>
<text x="26" y="101" font-size="13" fill="#26354a" font-weight="400">Source: Fictional migration worked example; normalized from the supplied Markdown matrix</text>
<text x="26" y="195" font-size="12" fill="#42516a" font-weight="700">DELIVERABLE / DECISION</text>
<text x="322" y="190" font-size="13" fill="#13283f" font-weight="700">Noel: sponsor</text>
<text x="467" y="190" font-size="13" fill="#13283f" font-weight="700">Jules: PM</text>
<text x="612" y="190" font-size="13" fill="#13283f" font-weight="700">Chen: migration</text>
<text x="757" y="190" font-size="13" fill="#13283f" font-weight="700">Beck: vendor</text>
<text x="902" y="190" font-size="13" fill="#13283f" font-weight="700">Saira: business</text>
<text x="1047" y="190" font-size="13" fill="#13283f" font-weight="700">Rosa: operations</text>
<rect x="20" y="225" width="1170" height="74" fill="#fff" stroke="#dde3ec"/>
<text x="32" y="244" font-size="11" fill="#5b6677" font-weight="400">M-R-1</text>
<text x="32" y="264" font-size="13" fill="#26354a" font-weight="600">Vendor mapping deliverable</text>
<rect x="318" y="235" width="129" height="54" rx="8" fill="#edf0f4" stroke="#a3adbd" stroke-dasharray="4 3"/>
<text x="330" y="259" font-size="20" fill="#38475a" font-weight="700">I</text>
<text x="330" y="277" font-size="10" fill="#38475a" font-weight="400">proposed</text>
<rect x="463" y="235" width="129" height="54" rx="8" fill="#d6eee9" stroke="#a3adbd" stroke-dasharray="4 3"/>
<text x="475" y="259" font-size="20" fill="#155d54" font-weight="700">C</text>
<text x="475" y="277" font-size="10" fill="#155d54" font-weight="400">proposed</text>
<rect x="608" y="235" width="129" height="54" rx="8" fill="#d6eee9" stroke="#a3adbd" stroke-dasharray="4 3"/>
<text x="620" y="259" font-size="20" fill="#155d54" font-weight="700">C</text>
<text x="620" y="277" font-size="10" fill="#155d54" font-weight="400">proposed</text>
<rect x="753" y="235" width="129" height="54" rx="8" fill="#e3defa" stroke="#a3adbd" stroke-dasharray="4 3"/>
<text x="765" y="259" font-size="20" fill="#423075" font-weight="700">A/R</text>
<text x="765" y="277" font-size="10" fill="#423075" font-weight="400">proposed</text>
<rect x="898" y="235" width="129" height="54" rx="8" fill="#d6eee9" stroke="#a3adbd" stroke-dasharray="4 3"/>
<text x="910" y="259" font-size="20" fill="#155d54" font-weight="700">C</text>
<text x="910" y="277" font-size="10" fill="#155d54" font-weight="400">proposed</text>
<rect x="1043" y="235" width="129" height="54" rx="8" fill="#edf0f4" stroke="#a3adbd" stroke-dasharray="4 3"/>
<text x="1055" y="259" font-size="20" fill="#38475a" font-weight="700">I</text>
<text x="1055" y="277" font-size="10" fill="#38475a" font-weight="400">proposed</text>
<rect x="20" y="299" width="1170" height="74" fill="#fff" stroke="#dde3ec"/>
<text x="32" y="318" font-size="11" fill="#5b6677" font-weight="400">M-R-2</text>
<text x="32" y="338" font-size="13" fill="#26354a" font-weight="600">Internal mapping verification</text>
<rect x="318" y="309" width="129" height="54" rx="8" fill="#edf0f4" stroke="#a3adbd" stroke-dasharray="4 3"/>
<text x="330" y="333" font-size="20" fill="#38475a" font-weight="700">I</text>
<text x="330" y="351" font-size="10" fill="#38475a" font-weight="400">proposed</text>
<rect x="463" y="309" width="129" height="54" rx="8" fill="#d6eee9" stroke="#a3adbd" stroke-dasharray="4 3"/>
<text x="475" y="333" font-size="20" fill="#155d54" font-weight="700">C</text>
<text x="475" y="351" font-size="10" fill="#155d54" font-weight="400">proposed</text>
<rect x="608" y="309" width="129" height="54" rx="8" fill="#e3defa" stroke="#a3adbd" stroke-dasharray="4 3"/>
<text x="620" y="333" font-size="20" fill="#423075" font-weight="700">A/R</text>
<text x="620" y="351" font-size="10" fill="#423075" font-weight="400">proposed</text>
<rect x="753" y="309" width="129" height="54" rx="8" fill="#d6eee9" stroke="#a3adbd" stroke-dasharray="4 3"/>
<text x="765" y="333" font-size="20" fill="#155d54" font-weight="700">C</text>
<text x="765" y="351" font-size="10" fill="#155d54" font-weight="400">proposed</text>
<rect x="898" y="309" width="129" height="54" rx="8" fill="#d6eee9" stroke="#a3adbd" stroke-dasharray="4 3"/>
<text x="910" y="333" font-size="20" fill="#155d54" font-weight="700">C</text>
<text x="910" y="351" font-size="10" fill="#155d54" font-weight="400">proposed</text>
<rect x="1043" y="309" width="129" height="54" rx="8" fill="#edf0f4" stroke="#a3adbd" stroke-dasharray="4 3"/>
<text x="1055" y="333" font-size="20" fill="#38475a" font-weight="700">I</text>
<text x="1055" y="351" font-size="10" fill="#38475a" font-weight="400">proposed</text>
<rect x="20" y="373" width="1170" height="74" fill="#fff" stroke="#dde3ec"/>
<text x="32" y="392" font-size="11" fill="#5b6677" font-weight="400">M-R-3</text>
<text x="32" y="412" font-size="13" fill="#26354a" font-weight="600">Representative migration rehearsal</text>
<rect x="318" y="383" width="129" height="54" rx="8" fill="#edf0f4" stroke="#a3adbd" stroke-dasharray="4 3"/>
<text x="330" y="407" font-size="20" fill="#38475a" font-weight="700">I</text>
<text x="330" y="425" font-size="10" fill="#38475a" font-weight="400">proposed</text>
<rect x="463" y="383" width="129" height="54" rx="8" fill="#d6eee9" stroke="#a3adbd" stroke-dasharray="4 3"/>
<text x="475" y="407" font-size="20" fill="#155d54" font-weight="700">C</text>
<text x="475" y="425" font-size="10" fill="#155d54" font-weight="400">proposed</text>
<rect x="608" y="383" width="129" height="54" rx="8" fill="#e3defa" stroke="#a3adbd" stroke-dasharray="4 3"/>
<text x="620" y="407" font-size="20" fill="#423075" font-weight="700">A/R</text>
<text x="620" y="425" font-size="10" fill="#423075" font-weight="400">proposed</text>
<rect x="753" y="383" width="129" height="54" rx="8" fill="#d6eee9" stroke="#a3adbd" stroke-dasharray="4 3"/>
<text x="765" y="407" font-size="20" fill="#155d54" font-weight="700">C</text>
<text x="765" y="425" font-size="10" fill="#155d54" font-weight="400">proposed</text>
<rect x="898" y="383" width="129" height="54" rx="8" fill="#d6eee9" stroke="#a3adbd" stroke-dasharray="4 3"/>
<text x="910" y="407" font-size="20" fill="#155d54" font-weight="700">C</text>
<text x="910" y="425" font-size="10" fill="#155d54" font-weight="400">proposed</text>
<rect x="1043" y="383" width="129" height="54" rx="8" fill="#d6eee9" stroke="#a3adbd" stroke-dasharray="4 3"/>
<text x="1055" y="407" font-size="20" fill="#155d54" font-weight="700">C</text>
<text x="1055" y="425" font-size="10" fill="#155d54" font-weight="400">proposed</text>
<rect x="20" y="447" width="1170" height="74" fill="#fff" stroke="#dde3ec"/>
<text x="32" y="466" font-size="11" fill="#5b6677" font-weight="400">M-R-4</text>
<text x="32" y="486" font-size="13" fill="#26354a" font-weight="600">Business acceptance decision</text>
<rect x="318" y="457" width="129" height="54" rx="8" fill="#edf0f4" stroke="#a3adbd" stroke-dasharray="4 3"/>
<text x="330" y="481" font-size="20" fill="#38475a" font-weight="700">I</text>
<text x="330" y="499" font-size="10" fill="#38475a" font-weight="400">proposed</text>
<rect x="463" y="457" width="129" height="54" rx="8" fill="#dbeafe" stroke="#a3adbd" stroke-dasharray="4 3"/>
<text x="475" y="481" font-size="20" fill="#173d73" font-weight="700">R</text>
<text x="475" y="499" font-size="10" fill="#173d73" font-weight="400">proposed</text>
<rect x="608" y="457" width="129" height="54" rx="8" fill="#dbeafe" stroke="#a3adbd" stroke-dasharray="4 3"/>
<text x="620" y="481" font-size="20" fill="#173d73" font-weight="700">R</text>
<text x="620" y="499" font-size="10" fill="#173d73" font-weight="400">proposed</text>
<rect x="753" y="457" width="129" height="54" rx="8" fill="#d6eee9" stroke="#a3adbd" stroke-dasharray="4 3"/>
<text x="765" y="481" font-size="20" fill="#155d54" font-weight="700">C</text>
<text x="765" y="499" font-size="10" fill="#155d54" font-weight="400">proposed</text>
<rect x="898" y="457" width="129" height="54" rx="8" fill="#e3defa" stroke="#a3adbd" stroke-dasharray="4 3"/>
<text x="910" y="481" font-size="20" fill="#423075" font-weight="700">A/R</text>
<text x="910" y="499" font-size="10" fill="#423075" font-weight="400">proposed</text>
<rect x="1043" y="457" width="129" height="54" rx="8" fill="#d6eee9" stroke="#a3adbd" stroke-dasharray="4 3"/>
<text x="1055" y="481" font-size="20" fill="#155d54" font-weight="700">C</text>
<text x="1055" y="499" font-size="10" fill="#155d54" font-weight="400">proposed</text>
<rect x="20" y="521" width="1170" height="74" fill="#fff" stroke="#dde3ec"/>
<text x="32" y="540" font-size="11" fill="#5b6677" font-weight="400">M-R-5</text>
<text x="32" y="560" font-size="13" fill="#26354a" font-weight="600">Restore readiness demonstration</text>
<rect x="318" y="531" width="129" height="54" rx="8" fill="#edf0f4" stroke="#a3adbd" stroke-dasharray="4 3"/>
<text x="330" y="555" font-size="20" fill="#38475a" font-weight="700">I</text>
<text x="330" y="573" font-size="10" fill="#38475a" font-weight="400">proposed</text>
<rect x="463" y="531" width="129" height="54" rx="8" fill="#d6eee9" stroke="#a3adbd" stroke-dasharray="4 3"/>
<text x="475" y="555" font-size="20" fill="#155d54" font-weight="700">C</text>
<text x="475" y="573" font-size="10" fill="#155d54" font-weight="400">proposed</text>
<rect x="608" y="531" width="129" height="54" rx="8" fill="#dbeafe" stroke="#a3adbd" stroke-dasharray="4 3"/>
<text x="620" y="555" font-size="20" fill="#173d73" font-weight="700">R</text>
<text x="620" y="573" font-size="10" fill="#173d73" font-weight="400">proposed</text>
<rect x="753" y="531" width="129" height="54" rx="8" fill="#d6eee9" stroke="#a3adbd" stroke-dasharray="4 3"/>
<text x="765" y="555" font-size="20" fill="#155d54" font-weight="700">C</text>
<text x="765" y="573" font-size="10" fill="#155d54" font-weight="400">proposed</text>
<rect x="898" y="531" width="129" height="54" rx="8" fill="#d6eee9" stroke="#a3adbd" stroke-dasharray="4 3"/>
<text x="910" y="555" font-size="20" fill="#155d54" font-weight="700">C</text>
<text x="910" y="573" font-size="10" fill="#155d54" font-weight="400">proposed</text>
<rect x="1043" y="531" width="129" height="54" rx="8" fill="#e3defa" stroke="#a3adbd" stroke-dasharray="4 3"/>
<text x="1055" y="555" font-size="20" fill="#423075" font-weight="700">A</text>
<text x="1055" y="573" font-size="10" fill="#423075" font-weight="400">proposed</text>
<rect x="20" y="595" width="1170" height="74" fill="#fff" stroke="#dde3ec"/>
<text x="32" y="614" font-size="11" fill="#5b6677" font-weight="400">M-R-6</text>
<text x="32" y="634" font-size="13" fill="#26354a" font-weight="600">Operational handover acceptance</text>
<rect x="318" y="605" width="129" height="54" rx="8" fill="#edf0f4" stroke="#a3adbd" stroke-dasharray="4 3"/>
<text x="330" y="629" font-size="20" fill="#38475a" font-weight="700">I</text>
<text x="330" y="647" font-size="10" fill="#38475a" font-weight="400">proposed</text>
<rect x="463" y="605" width="129" height="54" rx="8" fill="#dbeafe" stroke="#a3adbd" stroke-dasharray="4 3"/>
<text x="475" y="629" font-size="20" fill="#173d73" font-weight="700">R</text>
<text x="475" y="647" font-size="10" fill="#173d73" font-weight="400">proposed</text>
<rect x="608" y="605" width="129" height="54" rx="8" fill="#d6eee9" stroke="#a3adbd" stroke-dasharray="4 3"/>
<text x="620" y="629" font-size="20" fill="#155d54" font-weight="700">C</text>
<text x="620" y="647" font-size="10" fill="#155d54" font-weight="400">proposed</text>
<rect x="753" y="605" width="129" height="54" rx="8" fill="#d6eee9" stroke="#a3adbd" stroke-dasharray="4 3"/>
<text x="765" y="629" font-size="20" fill="#155d54" font-weight="700">C</text>
<text x="765" y="647" font-size="10" fill="#155d54" font-weight="400">proposed</text>
<rect x="898" y="605" width="129" height="54" rx="8" fill="#d6eee9" stroke="#a3adbd" stroke-dasharray="4 3"/>
<text x="910" y="629" font-size="20" fill="#155d54" font-weight="700">C</text>
<text x="910" y="647" font-size="10" fill="#155d54" font-weight="400">proposed</text>
<rect x="1043" y="605" width="129" height="54" rx="8" fill="#e3defa" stroke="#a3adbd" stroke-dasharray="4 3"/>
<text x="1055" y="629" font-size="20" fill="#423075" font-weight="700">A/R</text>
<text x="1055" y="647" font-size="10" fill="#423075" font-weight="400">proposed</text>
<rect x="20" y="669" width="1170" height="76" fill="#fff" stroke="#dde3ec"/>
<text x="32" y="688" font-size="11" fill="#5b6677" font-weight="400">M-R-7</text>
<text x="32" y="708" font-size="13" fill="#26354a" font-weight="600">Material baseline/funding change</text>
<text x="32" y="725" font-size="13" fill="#26354a" font-weight="600">decision</text>
<rect x="318" y="679" width="129" height="56" rx="8" fill="#e3defa" stroke="#a3adbd" stroke-dasharray="4 3"/>
<text x="330" y="703" font-size="20" fill="#423075" font-weight="700">A</text>
<text x="330" y="721" font-size="10" fill="#423075" font-weight="400">proposed</text>
<rect x="463" y="679" width="129" height="56" rx="8" fill="#dbeafe" stroke="#a3adbd" stroke-dasharray="4 3"/>
<text x="475" y="703" font-size="20" fill="#173d73" font-weight="700">R</text>
<text x="475" y="721" font-size="10" fill="#173d73" font-weight="400">proposed</text>
<rect x="608" y="679" width="129" height="56" rx="8" fill="#d6eee9" stroke="#a3adbd" stroke-dasharray="4 3"/>
<text x="620" y="703" font-size="20" fill="#155d54" font-weight="700">C</text>
<text x="620" y="721" font-size="10" fill="#155d54" font-weight="400">proposed</text>
<rect x="753" y="679" width="129" height="56" rx="8" fill="#d6eee9" stroke="#a3adbd" stroke-dasharray="4 3"/>
<text x="765" y="703" font-size="20" fill="#155d54" font-weight="700">C</text>
<text x="765" y="721" font-size="10" fill="#155d54" font-weight="400">proposed</text>
<rect x="898" y="679" width="129" height="56" rx="8" fill="#d6eee9" stroke="#a3adbd" stroke-dasharray="4 3"/>
<text x="910" y="703" font-size="20" fill="#155d54" font-weight="700">C</text>
<text x="910" y="721" font-size="10" fill="#155d54" font-weight="400">proposed</text>
<rect x="1043" y="679" width="129" height="56" rx="8" fill="#d6eee9" stroke="#a3adbd" stroke-dasharray="4 3"/>
<text x="1055" y="703" font-size="20" fill="#155d54" font-weight="700">C</text>
<text x="1055" y="721" font-size="10" fill="#155d54" font-weight="400">proposed</text>
<rect x="20" y="745" width="1170" height="74" fill="#fff" stroke="#dde3ec"/>
<text x="32" y="764" font-size="11" fill="#5b6677" font-weight="400">GO-UNKNOWN</text>
<text x="32" y="784" font-size="13" fill="#26354a" font-weight="600">Cutover go decision</text>
<rect x="318" y="755" width="129" height="54" rx="8" fill="#fff0d0" stroke="#a3adbd" stroke-dasharray="4 3"/>
<text x="330" y="779" font-size="20" fill="#744c0e" font-weight="700">?</text>
<text x="330" y="797" font-size="10" fill="#744c0e" font-weight="400">unknown</text>
<rect x="463" y="755" width="129" height="54" rx="8" fill="#fff0d0" stroke="#a3adbd" stroke-dasharray="4 3"/>
<text x="475" y="779" font-size="20" fill="#744c0e" font-weight="700">?</text>
<text x="475" y="797" font-size="10" fill="#744c0e" font-weight="400">unknown</text>
<rect x="608" y="755" width="129" height="54" rx="8" fill="#fff0d0" stroke="#a3adbd" stroke-dasharray="4 3"/>
<text x="620" y="779" font-size="20" fill="#744c0e" font-weight="700">?</text>
<text x="620" y="797" font-size="10" fill="#744c0e" font-weight="400">unknown</text>
<rect x="753" y="755" width="129" height="54" rx="8" fill="#fff0d0" stroke="#a3adbd" stroke-dasharray="4 3"/>
<text x="765" y="779" font-size="20" fill="#744c0e" font-weight="700">?</text>
<text x="765" y="797" font-size="10" fill="#744c0e" font-weight="400">unknown</text>
<rect x="898" y="755" width="129" height="54" rx="8" fill="#fff0d0" stroke="#a3adbd" stroke-dasharray="4 3"/>
<text x="910" y="779" font-size="20" fill="#744c0e" font-weight="700">?</text>
<text x="910" y="797" font-size="10" fill="#744c0e" font-weight="400">unknown</text>
<rect x="1043" y="755" width="129" height="54" rx="8" fill="#fff0d0" stroke="#a3adbd" stroke-dasharray="4 3"/>
<text x="1055" y="779" font-size="20" fill="#744c0e" font-weight="700">?</text>
<text x="1055" y="797" font-size="10" fill="#744c0e" font-weight="400">unknown</text>
<text x="26" y="849" font-size="12" fill="#26354a" font-weight="400">R performs · A owns result · C consulted · I informed · A/R both · ? unresolved · — no assignment</text>
<text x="26" y="868" font-size="12" fill="#26354a" font-weight="400">Dashed border = proposed/unknown; solid border = confirmed; red outline = disputed.</text>
<text x="26" y="887" font-size="12" fill="#26354a" font-weight="400">8 rows · 6 roles · 8 rows with review findings. Counts are not utilization.</text>
<text x="26" y="906" font-size="12" fill="#26354a" font-weight="400">Row IDs R-/M-R- and GO-UNKNOWN are illustrative artifact identifiers added for navigation, not new project approvals.</text>
<text x="26" y="925" font-size="12" fill="#26354a" font-weight="400">All original matrix letters are retained. The unresolved go row makes the existing narrative gap visible.</text>
<text x="26" y="944" font-size="12" fill="#26354a" font-weight="400">Full duty and source records are in HTML, JSON and CSV; counts are not utilization.</text>
<text x="26" y="963" font-size="12" fill="#26354a" font-weight="400">M-R-4 / Jules: PM: coordinate record</text>
<text x="26" y="982" font-size="12" fill="#26354a" font-weight="400">M-R-4 / Chen: migration: supply results</text>
<text x="26" y="1001" font-size="12" fill="#26354a" font-weight="400">M-R-5 / Chen: migration: proposed executor</text>
<text x="26" y="1020" font-size="12" fill="#26354a" font-weight="400">M-R-6 / Jules: PM: coordinate transfer</text>
<text x="26" y="1039" font-size="12" fill="#26354a" font-weight="400">M-R-7 / Jules: PM: impact proposal</text>
<text x="26" y="1058" font-size="12" fill="#26354a" font-weight="400">GO-UNKNOWN / Noel: sponsor: Release decision authority/assignment not established in this early draft</text>
<text x="26" y="1077" font-size="12" fill="#26354a" font-weight="400">GO-UNKNOWN / Jules: PM: Release decision authority/assignment not established in this early draft</text>
<text x="26" y="1096" font-size="12" fill="#26354a" font-weight="400">GO-UNKNOWN / Chen: migration: Release decision authority/assignment not established in this early draft</text>
<text x="26" y="1115" font-size="12" fill="#26354a" font-weight="400">GO-UNKNOWN / Beck: vendor: Release decision authority/assignment not established in this early draft</text>
<text x="26" y="1134" font-size="12" fill="#26354a" font-weight="400">GO-UNKNOWN / Saira: business: Release decision authority/assignment not established in this early draft</text>
<text x="26" y="1153" font-size="12" fill="#26354a" font-weight="400">GO-UNKNOWN / Rosa: operations: Release decision authority/assignment not established in this early draft</text>
</g></svg>