<svg xmlns="http://www.w3.org/2000/svg" width="1400" height="1331" viewBox="0 0 1400 1331" role="img" aria-labelledby="title desc"><title id="title">Relay · responsibility map</title><desc id="desc">Responsibility assignment matrix as of 2026-09-29. Letters and confirmation state are distinct. Counts are not utilization.</desc><defs><filter id="shadow" x="-20%" y="-20%" width="140%" height="150%"><feDropShadow dx="0" dy="5" stdDeviation="7" flood-color="#0b1f40" flood-opacity=".11"/></filter></defs><rect width="100%" height="100%" fill="#f5f7fb"/><rect x="0" y="0" width="12" height="100%" fill="#173b2d"/><text x="38" y="44" font-family="Arial, sans-serif" font-size="12" fill="#d80b61" font-weight="800" letter-spacing="2">RESPONSIBILITY BASELINE</text><text x="38" y="100" font-family="Arial, sans-serif" font-size="42" fill="#0c234b" font-weight="800">Authority before initials</text><text x="38" y="137" font-family="Arial, sans-serif" font-size="16" fill="#536581" font-weight="400">Inspect each delivery relationship, its confirmation state, and the evidence needed to rely on it.</text><g filter="url(#shadow)"><rect x="38" y="168" width="226" height="91" rx="14" fill="#fff" stroke="#ccd6e5"/><text x="54" y="194" font-family="Arial, sans-serif" font-size="10" fill="#667085" font-weight="800" letter-spacing="1">BOUNDED ROWS</text><text x="54" y="225" font-family="Arial, sans-serif" font-size="23" fill="#0c234b" font-weight="800">8</text><text x="54" y="246" font-family="Arial, sans-serif" font-size="10" fill="#667085" font-weight="400">Deliverables and decisions</text></g><g filter="url(#shadow)"><rect x="278" y="168" width="226" height="91" rx="14" fill="#fff" stroke="#ccd6e5"/><text x="294" y="194" font-family="Arial, sans-serif" font-size="10" fill="#667085" font-weight="800" letter-spacing="1">NAMED ROLES</text><text x="294" y="225" font-family="Arial, sans-serif" font-size="23" fill="#0c234b" font-weight="800">6</text><text x="294" y="246" font-family="Arial, sans-serif" font-size="10" fill="#667085" font-weight="400">Proposed participants</text></g><g filter="url(#shadow)"><rect x="518" y="168" width="226" height="91" rx="14" fill="#fff" stroke="#ccd6e5"/><text x="534" y="194" font-family="Arial, sans-serif" font-size="10" fill="#667085" font-weight="800" letter-spacing="1">UNRESOLVED CELLS</text><text x="534" y="225" font-family="Arial, sans-serif" font-size="23" fill="#0c234b" font-weight="800">6</text><text x="534" y="246" font-family="Arial, sans-serif" font-size="10" fill="#667085" font-weight="400">Pilot-go authority retained</text></g><g filter="url(#shadow)"><rect x="758" y="168" width="226" height="91" rx="14" fill="#fff" stroke="#ccd6e5"/><text x="774" y="194" font-family="Arial, sans-serif" font-size="10" fill="#667085" font-weight="800" letter-spacing="1">CONFIRMED CELLS</text><text x="774" y="225" font-family="Arial, sans-serif" font-size="23" fill="#0c234b" font-weight="800">0</text><text x="774" y="246" font-family="Arial, sans-serif" font-size="10" fill="#667085" font-weight="400">No agreement inferred</text></g><g transform="translate(22 296)"><rect width="1356" height="856" rx="18" fill="#fff" stroke="#ccd6e5"/><text x="22" y="30" font-family="Arial, sans-serif" font-size="11" fill="#536581" font-weight="800" letter-spacing=".7">DELIVERABLE / DECISION</text><text x="425.5" y="24" font-family="Arial, sans-serif" font-size="11" fill="#0c234b" font-weight="700" text-anchor="middle">Ada: sponsor</text><text x="425.5" y="58" font-family="Arial, sans-serif" font-size="9" fill="#667085" font-weight="400" text-anchor="middle">governance</text><text x="580.5" y="24" font-family="Arial, sans-serif" font-size="11" fill="#0c234b" font-weight="700" text-anchor="middle">Mina: PM</text><text x="580.5" y="58" font-family="Arial, sans-serif" font-size="9" fill="#667085" font-weight="400" text-anchor="middle">coordination</text><text x="735.5" y="24" font-family="Arial, sans-serif" font-size="11" fill="#0c234b" font-weight="700" text-anchor="middle">Omar: engineering</text><text x="735.5" y="58" font-family="Arial, sans-serif" font-size="9" fill="#667085" font-weight="400" text-anchor="middle">engineering</text><text x="890.5" y="24" font-family="Arial, sans-serif" font-size="11" fill="#0c234b" font-weight="700" text-anchor="middle">Priya: product</text><text x="890.5" y="58" font-family="Arial, sans-serif" font-size="9" fill="#667085" font-weight="400" text-anchor="middle">product</text><text x="1045.5" y="24" font-family="Arial, sans-serif" font-size="11" fill="#0c234b" font-weight="700" text-anchor="middle">Lena: security</text><text x="1045.5" y="58" font-family="Arial, sans-serif" font-size="9" fill="#667085" font-weight="400" text-anchor="middle">security</text><text x="1200.5" y="24" font-family="Arial, sans-serif" font-size="11" fill="#0c234b" font-weight="700" text-anchor="middle">Theo: service</text><text x="1200.5" y="58" font-family="Arial, sans-serif" font-size="9" fill="#667085" font-weight="400" text-anchor="middle">service</text><rect x="0" y="72" width="1356" height="40" fill="#edf2f8"/><rect x="18" y="81" width="30" height="22" rx="7" fill="#0c234b"/><text x="33" y="97" font-family="Arial, sans-serif" font-size="10" fill="#fff" font-weight="800" text-anchor="middle">01</text><text x="60" y="97" font-family="Arial, sans-serif" font-size="15" fill="#0c234b" font-weight="800">Baseline and governance</text><g data-row="R-1"><rect x="0" y="112" width="1356" height="78" fill="#fff" stroke="#dbe3ee"/><rect x="0" y="112" width="4" height="78" fill="#d80b61"/><text x="18" y="135" font-family="Arial, sans-serif" font-size="10" fill="#d80b61" font-weight="800">R-1</text><text x="18" y="155" font-family="Arial, sans-serif" font-size="13" fill="#13294b" font-weight="700">Integrated baseline proposal</text><rect x="356" y="123" width="139" height="56" rx="10" fill="#d7eee9" stroke="#b8c6d9" stroke-dasharray="5 3"/><text x="368" y="150" font-family="Arial, sans-serif" font-size="19" fill="#155d54" font-weight="800">C</text><text x="368" y="167" font-family="Arial, sans-serif" font-size="9" fill="#155d54" font-weight="600">proposed</text><rect x="511" y="123" width="139" height="56" rx="10" fill="#eadcf7" stroke="#b8c6d9" stroke-dasharray="5 3"/><text x="523" y="150" font-family="Arial, sans-serif" font-size="19" fill="#59327d" font-weight="800">A/R</text><text x="523" y="167" font-family="Arial, sans-serif" font-size="9" fill="#59327d" font-weight="600">proposed</text><rect x="666" y="123" width="139" height="56" rx="10" fill="#d7eee9" stroke="#b8c6d9" stroke-dasharray="5 3"/><text x="678" y="150" font-family="Arial, sans-serif" font-size="19" fill="#155d54" font-weight="800">C</text><text x="678" y="167" font-family="Arial, sans-serif" font-size="9" fill="#155d54" font-weight="600">proposed</text><rect x="821" y="123" width="139" height="56" rx="10" fill="#d7eee9" stroke="#b8c6d9" stroke-dasharray="5 3"/><text x="833" y="150" font-family="Arial, sans-serif" font-size="19" fill="#155d54" font-weight="800">C</text><text x="833" y="167" font-family="Arial, sans-serif" font-size="9" fill="#155d54" font-weight="600">proposed</text><rect x="976" y="123" width="139" height="56" rx="10" fill="#d7eee9" stroke="#b8c6d9" stroke-dasharray="5 3"/><text x="988" y="150" font-family="Arial, sans-serif" font-size="19" fill="#155d54" font-weight="800">C</text><text x="988" y="167" font-family="Arial, sans-serif" font-size="9" fill="#155d54" font-weight="600">proposed</text><rect x="1131" y="123" width="139" height="56" rx="10" fill="#d7eee9" stroke="#b8c6d9" stroke-dasharray="5 3"/><text x="1143" y="150" font-family="Arial, sans-serif" font-size="19" fill="#155d54" font-weight="800">C</text><text x="1143" y="167" font-family="Arial, sans-serif" font-size="9" fill="#155d54" font-weight="600">proposed</text></g><g data-row="R-2"><rect x="0" y="190" width="1356" height="78" fill="#fff" stroke="#dbe3ee"/><rect x="0" y="190" width="4" height="78" fill="#d80b61"/><text x="18" y="213" font-family="Arial, sans-serif" font-size="10" fill="#d80b61" font-weight="800">R-2</text><text x="18" y="233" font-family="Arial, sans-serif" font-size="13" fill="#13294b" font-weight="700">Baseline approval decision</text><rect x="356" y="201" width="139" height="56" rx="10" fill="#f7d7e6" stroke="#b8c6d9" stroke-dasharray="5 3"/><text x="368" y="228" font-family="Arial, sans-serif" font-size="19" fill="#8c164c" font-weight="800">A</text><text x="368" y="245" font-family="Arial, sans-serif" font-size="9" fill="#8c164c" font-weight="600">proposed</text><rect x="511" y="201" width="139" height="56" rx="10" fill="#d9e8ff" stroke="#b8c6d9" stroke-dasharray="5 3"/><text x="523" y="228" font-family="Arial, sans-serif" font-size="19" fill="#173d73" font-weight="800">R</text><text x="523" y="245" font-family="Arial, sans-serif" font-size="9" fill="#173d73" font-weight="600">proposed</text><rect x="666" y="201" width="139" height="56" rx="10" fill="#d7eee9" stroke="#b8c6d9" stroke-dasharray="5 3"/><text x="678" y="228" font-family="Arial, sans-serif" font-size="19" fill="#155d54" font-weight="800">C</text><text x="678" y="245" font-family="Arial, sans-serif" font-size="9" fill="#155d54" font-weight="600">proposed</text><rect x="821" y="201" width="139" height="56" rx="10" fill="#d7eee9" stroke="#b8c6d9" stroke-dasharray="5 3"/><text x="833" y="228" font-family="Arial, sans-serif" font-size="19" fill="#155d54" font-weight="800">C</text><text x="833" y="245" font-family="Arial, sans-serif" font-size="9" fill="#155d54" font-weight="600">proposed</text><rect x="976" y="201" width="139" height="56" rx="10" fill="#d7eee9" stroke="#b8c6d9" stroke-dasharray="5 3"/><text x="988" y="228" font-family="Arial, sans-serif" font-size="19" fill="#155d54" font-weight="800">C</text><text x="988" y="245" font-family="Arial, sans-serif" font-size="9" fill="#155d54" font-weight="600">proposed</text><rect x="1131" y="201" width="139" height="56" rx="10" fill="#d7eee9" stroke="#b8c6d9" stroke-dasharray="5 3"/><text x="1143" y="228" font-family="Arial, sans-serif" font-size="19" fill="#155d54" font-weight="800">C</text><text x="1143" y="245" font-family="Arial, sans-serif" font-size="9" fill="#155d54" font-weight="600">proposed</text></g><rect x="0" y="268" width="1356" height="40" fill="#edf2f8"/><rect x="18" y="277" width="30" height="22" rx="7" fill="#0c234b"/><text x="33" y="293" font-family="Arial, sans-serif" font-size="10" fill="#fff" font-weight="800" text-anchor="middle">02</text><text x="60" y="293" font-family="Arial, sans-serif" font-size="15" fill="#0c234b" font-weight="800">Product and engineering delivery</text><g data-row="R-3"><rect x="0" y="308" width="1356" height="78" fill="#fff" stroke="#dbe3ee"/><rect x="0" y="308" width="4" height="78" fill="#d80b61"/><text x="18" y="331" font-family="Arial, sans-serif" font-size="10" fill="#d80b61" font-weight="800">R-3</text><text x="18" y="351" font-family="Arial, sans-serif" font-size="13" fill="#13294b" font-weight="700">SAML implementation and engineering</text><text x="18" y="367" font-family="Arial, sans-serif" font-size="13" fill="#13294b" font-weight="700">evidence</text><rect x="356" y="319" width="139" height="56" rx="10" fill="#e9eef5" stroke="#b8c6d9" stroke-dasharray="5 3"/><text x="368" y="346" font-family="Arial, sans-serif" font-size="19" fill="#38475a" font-weight="800">I</text><text x="368" y="363" font-family="Arial, sans-serif" font-size="9" fill="#38475a" font-weight="600">proposed</text><rect x="511" y="319" width="139" height="56" rx="10" fill="#d7eee9" stroke="#b8c6d9" stroke-dasharray="5 3"/><text x="523" y="346" font-family="Arial, sans-serif" font-size="19" fill="#155d54" font-weight="800">C</text><text x="523" y="363" font-family="Arial, sans-serif" font-size="9" fill="#155d54" font-weight="600">proposed</text><rect x="666" y="319" width="139" height="56" rx="10" fill="#eadcf7" stroke="#b8c6d9" stroke-dasharray="5 3"/><text x="678" y="346" font-family="Arial, sans-serif" font-size="19" fill="#59327d" font-weight="800">A/R</text><text x="678" y="363" font-family="Arial, sans-serif" font-size="9" fill="#59327d" font-weight="600">proposed</text><rect x="821" y="319" width="139" height="56" rx="10" fill="#d7eee9" stroke="#b8c6d9" stroke-dasharray="5 3"/><text x="833" y="346" font-family="Arial, sans-serif" font-size="19" fill="#155d54" font-weight="800">C</text><text x="833" y="363" font-family="Arial, sans-serif" font-size="9" fill="#155d54" font-weight="600">proposed</text><rect x="976" y="319" width="139" height="56" rx="10" fill="#d7eee9" stroke="#b8c6d9" stroke-dasharray="5 3"/><text x="988" y="346" font-family="Arial, sans-serif" font-size="19" fill="#155d54" font-weight="800">C</text><text x="988" y="363" font-family="Arial, sans-serif" font-size="9" fill="#155d54" font-weight="600">proposed</text><rect x="1131" y="319" width="139" height="56" rx="10" fill="#e9eef5" stroke="#b8c6d9" stroke-dasharray="5 3"/><text x="1143" y="346" font-family="Arial, sans-serif" font-size="19" fill="#38475a" font-weight="800">I</text><text x="1143" y="363" font-family="Arial, sans-serif" font-size="9" fill="#38475a" font-weight="600">proposed</text></g><g data-row="R-4"><rect x="0" y="386" width="1356" height="78" fill="#fff" stroke="#dbe3ee"/><rect x="0" y="386" width="4" height="78" fill="#d80b61"/><text x="18" y="409" font-family="Arial, sans-serif" font-size="10" fill="#d80b61" font-weight="800">R-4</text><text x="18" y="429" font-family="Arial, sans-serif" font-size="13" fill="#13294b" font-weight="700">Backlog ordering</text><rect x="356" y="397" width="139" height="56" rx="10" fill="#e9eef5" stroke="#b8c6d9" stroke-dasharray="5 3"/><text x="368" y="424" font-family="Arial, sans-serif" font-size="19" fill="#38475a" font-weight="800">I</text><text x="368" y="441" font-family="Arial, sans-serif" font-size="9" fill="#38475a" font-weight="600">proposed</text><rect x="511" y="397" width="139" height="56" rx="10" fill="#d7eee9" stroke="#b8c6d9" stroke-dasharray="5 3"/><text x="523" y="424" font-family="Arial, sans-serif" font-size="19" fill="#155d54" font-weight="800">C</text><text x="523" y="441" font-family="Arial, sans-serif" font-size="9" fill="#155d54" font-weight="600">proposed</text><rect x="666" y="397" width="139" height="56" rx="10" fill="#d7eee9" stroke="#b8c6d9" stroke-dasharray="5 3"/><text x="678" y="424" font-family="Arial, sans-serif" font-size="19" fill="#155d54" font-weight="800">C</text><text x="678" y="441" font-family="Arial, sans-serif" font-size="9" fill="#155d54" font-weight="600">proposed</text><rect x="821" y="397" width="139" height="56" rx="10" fill="#eadcf7" stroke="#b8c6d9" stroke-dasharray="5 3"/><text x="833" y="424" font-family="Arial, sans-serif" font-size="19" fill="#59327d" font-weight="800">A/R</text><text x="833" y="441" font-family="Arial, sans-serif" font-size="9" fill="#59327d" font-weight="600">proposed</text><rect x="976" y="397" width="139" height="56" rx="10" fill="#d7eee9" stroke="#b8c6d9" stroke-dasharray="5 3"/><text x="988" y="424" font-family="Arial, sans-serif" font-size="19" fill="#155d54" font-weight="800">C</text><text x="988" y="441" font-family="Arial, sans-serif" font-size="9" fill="#155d54" font-weight="600">proposed</text><rect x="1131" y="397" width="139" height="56" rx="10" fill="#d7eee9" stroke="#b8c6d9" stroke-dasharray="5 3"/><text x="1143" y="424" font-family="Arial, sans-serif" font-size="19" fill="#155d54" font-weight="800">C</text><text x="1143" y="441" font-family="Arial, sans-serif" font-size="9" fill="#155d54" font-weight="600">proposed</text></g><rect x="0" y="464" width="1356" height="40" fill="#edf2f8"/><rect x="18" y="473" width="30" height="22" rx="7" fill="#0c234b"/><text x="33" y="489" font-family="Arial, sans-serif" font-size="10" fill="#fff" font-weight="800" text-anchor="middle">03</text><text x="60" y="489" font-family="Arial, sans-serif" font-size="15" fill="#0c234b" font-weight="800">Independent acceptance</text><g data-row="R-5"><rect x="0" y="504" width="1356" height="78" fill="#fff" stroke="#dbe3ee"/><rect x="0" y="504" width="4" height="78" fill="#d80b61"/><text x="18" y="527" font-family="Arial, sans-serif" font-size="10" fill="#d80b61" font-weight="800">R-5</text><text x="18" y="547" font-family="Arial, sans-serif" font-size="13" fill="#13294b" font-weight="700">Security acceptance decision</text><rect x="356" y="515" width="139" height="56" rx="10" fill="#e9eef5" stroke="#b8c6d9" stroke-dasharray="5 3"/><text x="368" y="542" font-family="Arial, sans-serif" font-size="19" fill="#38475a" font-weight="800">I</text><text x="368" y="559" font-family="Arial, sans-serif" font-size="9" fill="#38475a" font-weight="600">proposed</text><rect x="511" y="515" width="139" height="56" rx="10" fill="#e9eef5" stroke="#b8c6d9" stroke-dasharray="5 3"/><text x="523" y="542" font-family="Arial, sans-serif" font-size="19" fill="#38475a" font-weight="800">I</text><text x="523" y="559" font-family="Arial, sans-serif" font-size="9" fill="#38475a" font-weight="600">proposed</text><rect x="666" y="515" width="139" height="56" rx="10" fill="#d9e8ff" stroke="#b8c6d9" stroke-dasharray="5 3"/><text x="678" y="542" font-family="Arial, sans-serif" font-size="19" fill="#173d73" font-weight="800">R</text><text x="678" y="559" font-family="Arial, sans-serif" font-size="9" fill="#173d73" font-weight="600">proposed</text><rect x="821" y="515" width="139" height="56" rx="10" fill="#d7eee9" stroke="#b8c6d9" stroke-dasharray="5 3"/><text x="833" y="542" font-family="Arial, sans-serif" font-size="19" fill="#155d54" font-weight="800">C</text><text x="833" y="559" font-family="Arial, sans-serif" font-size="9" fill="#155d54" font-weight="600">proposed</text><rect x="976" y="515" width="139" height="56" rx="10" fill="#eadcf7" stroke="#b8c6d9" stroke-dasharray="5 3"/><text x="988" y="542" font-family="Arial, sans-serif" font-size="19" fill="#59327d" font-weight="800">A/R</text><text x="988" y="559" font-family="Arial, sans-serif" font-size="9" fill="#59327d" font-weight="600">proposed</text><rect x="1131" y="515" width="139" height="56" rx="10" fill="#d7eee9" stroke="#b8c6d9" stroke-dasharray="5 3"/><text x="1143" y="542" font-family="Arial, sans-serif" font-size="19" fill="#155d54" font-weight="800">C</text><text x="1143" y="559" font-family="Arial, sans-serif" font-size="9" fill="#155d54" font-weight="600">proposed</text></g><g data-row="R-6"><rect x="0" y="582" width="1356" height="78" fill="#fff" stroke="#dbe3ee"/><rect x="0" y="582" width="4" height="78" fill="#d80b61"/><text x="18" y="605" font-family="Arial, sans-serif" font-size="10" fill="#d80b61" font-weight="800">R-6</text><text x="18" y="625" font-family="Arial, sans-serif" font-size="13" fill="#13294b" font-weight="700">Service handover acceptance</text><rect x="356" y="593" width="139" height="56" rx="10" fill="#e9eef5" stroke="#b8c6d9" stroke-dasharray="5 3"/><text x="368" y="620" font-family="Arial, sans-serif" font-size="19" fill="#38475a" font-weight="800">I</text><text x="368" y="637" font-family="Arial, sans-serif" font-size="9" fill="#38475a" font-weight="600">proposed</text><rect x="511" y="593" width="139" height="56" rx="10" fill="#d9e8ff" stroke="#b8c6d9" stroke-dasharray="5 3"/><text x="523" y="620" font-family="Arial, sans-serif" font-size="19" fill="#173d73" font-weight="800">R</text><text x="523" y="637" font-family="Arial, sans-serif" font-size="9" fill="#173d73" font-weight="600">proposed</text><rect x="666" y="593" width="139" height="56" rx="10" fill="#d7eee9" stroke="#b8c6d9" stroke-dasharray="5 3"/><text x="678" y="620" font-family="Arial, sans-serif" font-size="19" fill="#155d54" font-weight="800">C</text><text x="678" y="637" font-family="Arial, sans-serif" font-size="9" fill="#155d54" font-weight="600">proposed</text><rect x="821" y="593" width="139" height="56" rx="10" fill="#d7eee9" stroke="#b8c6d9" stroke-dasharray="5 3"/><text x="833" y="620" font-family="Arial, sans-serif" font-size="19" fill="#155d54" font-weight="800">C</text><text x="833" y="637" font-family="Arial, sans-serif" font-size="9" fill="#155d54" font-weight="600">proposed</text><rect x="976" y="593" width="139" height="56" rx="10" fill="#d7eee9" stroke="#b8c6d9" stroke-dasharray="5 3"/><text x="988" y="620" font-family="Arial, sans-serif" font-size="19" fill="#155d54" font-weight="800">C</text><text x="988" y="637" font-family="Arial, sans-serif" font-size="9" fill="#155d54" font-weight="600">proposed</text><rect x="1131" y="593" width="139" height="56" rx="10" fill="#eadcf7" stroke="#b8c6d9" stroke-dasharray="5 3"/><text x="1143" y="620" font-family="Arial, sans-serif" font-size="19" fill="#59327d" font-weight="800">A/R</text><text x="1143" y="637" font-family="Arial, sans-serif" font-size="9" fill="#59327d" font-weight="600">proposed</text></g><rect x="0" y="660" width="1356" height="40" fill="#edf2f8"/><rect x="18" y="669" width="30" height="22" rx="7" fill="#0c234b"/><text x="33" y="685" font-family="Arial, sans-serif" font-size="10" fill="#fff" font-weight="800" text-anchor="middle">04</text><text x="60" y="685" font-family="Arial, sans-serif" font-size="15" fill="#0c234b" font-weight="800">Change and release decisions</text><g data-row="R-7"><rect x="0" y="700" width="1356" height="78" fill="#fff" stroke="#dbe3ee"/><rect x="0" y="700" width="4" height="78" fill="#d80b61"/><text x="18" y="723" font-family="Arial, sans-serif" font-size="10" fill="#d80b61" font-weight="800">R-7</text><text x="18" y="743" font-family="Arial, sans-serif" font-size="13" fill="#13294b" font-weight="700">Material scope/funding change decision</text><rect x="356" y="711" width="139" height="56" rx="10" fill="#f7d7e6" stroke="#b8c6d9" stroke-dasharray="5 3"/><text x="368" y="738" font-family="Arial, sans-serif" font-size="19" fill="#8c164c" font-weight="800">A</text><text x="368" y="755" font-family="Arial, sans-serif" font-size="9" fill="#8c164c" font-weight="600">proposed</text><rect x="511" y="711" width="139" height="56" rx="10" fill="#d9e8ff" stroke="#b8c6d9" stroke-dasharray="5 3"/><text x="523" y="738" font-family="Arial, sans-serif" font-size="19" fill="#173d73" font-weight="800">R</text><text x="523" y="755" font-family="Arial, sans-serif" font-size="9" fill="#173d73" font-weight="600">proposed</text><rect x="666" y="711" width="139" height="56" rx="10" fill="#d7eee9" stroke="#b8c6d9" stroke-dasharray="5 3"/><text x="678" y="738" font-family="Arial, sans-serif" font-size="19" fill="#155d54" font-weight="800">C</text><text x="678" y="755" font-family="Arial, sans-serif" font-size="9" fill="#155d54" font-weight="600">proposed</text><rect x="821" y="711" width="139" height="56" rx="10" fill="#d7eee9" stroke="#b8c6d9" stroke-dasharray="5 3"/><text x="833" y="738" font-family="Arial, sans-serif" font-size="19" fill="#155d54" font-weight="800">C</text><text x="833" y="755" font-family="Arial, sans-serif" font-size="9" fill="#155d54" font-weight="600">proposed</text><rect x="976" y="711" width="139" height="56" rx="10" fill="#d7eee9" stroke="#b8c6d9" stroke-dasharray="5 3"/><text x="988" y="738" font-family="Arial, sans-serif" font-size="19" fill="#155d54" font-weight="800">C</text><text x="988" y="755" font-family="Arial, sans-serif" font-size="9" fill="#155d54" font-weight="600">proposed</text><rect x="1131" y="711" width="139" height="56" rx="10" fill="#d7eee9" stroke="#b8c6d9" stroke-dasharray="5 3"/><text x="1143" y="738" font-family="Arial, sans-serif" font-size="19" fill="#155d54" font-weight="800">C</text><text x="1143" y="755" font-family="Arial, sans-serif" font-size="9" fill="#155d54" font-weight="600">proposed</text></g><g data-row="GO-UNKNOWN"><rect x="0" y="778" width="1356" height="78" fill="#fff" stroke="#dbe3ee"/><rect x="0" y="778" width="4" height="78" fill="#d80b61"/><text x="18" y="801" font-family="Arial, sans-serif" font-size="10" fill="#d80b61" font-weight="800">GO-UNKNOWN</text><text x="18" y="821" font-family="Arial, sans-serif" font-size="13" fill="#13294b" font-weight="700">Pilot go decision</text><rect x="356" y="789" width="139" height="56" rx="10" fill="#fff0d0" stroke="#d80b61" stroke-dasharray="5 3"/><text x="368" y="816" font-family="Arial, sans-serif" font-size="19" fill="#744c0e" font-weight="800">?</text><text x="368" y="833" font-family="Arial, sans-serif" font-size="9" fill="#744c0e" font-weight="600">unknown</text><rect x="511" y="789" width="139" height="56" rx="10" fill="#fff0d0" stroke="#d80b61" stroke-dasharray="5 3"/><text x="523" y="816" font-family="Arial, sans-serif" font-size="19" fill="#744c0e" font-weight="800">?</text><text x="523" y="833" font-family="Arial, sans-serif" font-size="9" fill="#744c0e" font-weight="600">unknown</text><rect x="666" y="789" width="139" height="56" rx="10" fill="#fff0d0" stroke="#d80b61" stroke-dasharray="5 3"/><text x="678" y="816" font-family="Arial, sans-serif" font-size="19" fill="#744c0e" font-weight="800">?</text><text x="678" y="833" font-family="Arial, sans-serif" font-size="9" fill="#744c0e" font-weight="600">unknown</text><rect x="821" y="789" width="139" height="56" rx="10" fill="#fff0d0" stroke="#d80b61" stroke-dasharray="5 3"/><text x="833" y="816" font-family="Arial, sans-serif" font-size="19" fill="#744c0e" font-weight="800">?</text><text x="833" y="833" font-family="Arial, sans-serif" font-size="9" fill="#744c0e" font-weight="600">unknown</text><rect x="976" y="789" width="139" height="56" rx="10" fill="#fff0d0" stroke="#d80b61" stroke-dasharray="5 3"/><text x="988" y="816" font-family="Arial, sans-serif" font-size="19" fill="#744c0e" font-weight="800">?</text><text x="988" y="833" font-family="Arial, sans-serif" font-size="9" fill="#744c0e" font-weight="600">unknown</text><rect x="1131" y="789" width="139" height="56" rx="10" fill="#fff0d0" stroke="#d80b61" stroke-dasharray="5 3"/><text x="1143" y="816" font-family="Arial, sans-serif" font-size="19" fill="#744c0e" font-weight="800">?</text><text x="1143" y="833" font-family="Arial, sans-serif" font-size="9" fill="#744c0e" font-weight="600">unknown</text></g></g><text x="38" y="1186" font-family="Arial, sans-serif" font-size="11" fill="#536581" font-weight="700">R performs  ·  A owns the result  ·  C is consulted  ·  I is informed  ·  ? unresolved  ·  — no assignment</text><text x="38" y="1211" font-family="Arial, sans-serif" font-size="11" fill="#536581" font-weight="400">Solid = confirmed  ·  dashed = proposed or unknown  ·  red outline = disputed. Letter and confirmation are separate dimensions.</text><text x="38" y="1236" font-family="Arial, sans-serif" font-size="11" fill="#536581" font-weight="400">8 rows · 6 roles · 8 rows with review findings. Counts indicate assignment patterns, not workload or capacity.</text><text x="38" y="1261" font-family="Arial, sans-serif" font-size="11" fill="#667085" font-weight="400">As of 2026-09-29 · Proposed — assignments unconfirmed · Source: Fictional software worked example; normalized from the supplied Markdown matrix</text><text x="38" y="1286" font-family="Arial, sans-serif" font-size="11" fill="#667085" font-weight="400">Rule-based horizontal and vertical review of supplied RACI cells; thresholds reveal discussion points and do not measure workload.</text></svg>